<?xml version="1.0" standalone="no"?>
<!DOCTYPE svg PUBLIC "-//W3C//DTD SVG 20010904//EN"
 "http://www.w3.org/TR/2001/REC-SVG-20010904/DTD/svg10.dtd">
<svg version="1.0" xmlns="http://www.w3.org/2000/svg"
 width="512.000000pt" height="512.000000pt" viewBox="0 0 512.000000 512.000000"
 preserveAspectRatio="xMidYMid meet">
<metadata>
Created by potrace 1.11, written by Peter Selinger 2001-2013
</metadata>
<g transform="translate(0.000000,512.000000) scale(0.100000,-0.100000)"
fill="#000000" stroke="none">
<path d="M261 4938 c-98 -17 -179 -77 -229 -171 l-27 -52 -2 -1605 c-2 -1222
0 -1615 9 -1645 34 -115 123 -196 237 -219 39 -8 327 -11 963 -11 810 1 907
-1 903 -15 -2 -8 -41 -163 -86 -345 -45 -181 -85 -333 -88 -336 -3 -4 -44 -9
-91 -12 -189 -12 -317 -127 -345 -308 -5 -32 -3 -37 17 -40 19 -3 2063 -3
2091 0 5 1 6 18 2 38 -29 187 -165 305 -360 312 -38 1 -72 4 -76 7 -4 2 -9 16
-12 31 -10 60 -157 639 -166 653 -8 14 90 16 928 16 874 0 939 1 981 18 66 26
118 64 151 113 62 90 59 -14 56 1743 l-2 1605 -23 46 c-44 89 -130 158 -217
175 -50 9 -4559 11 -4614 2z"/>
</g>
</svg>
